/vscmnt/brussel_pixiu_data/_data_brussel/112/vsc11236/PredSimResults/SUBJ10mtu3D/weighted-expIG/worker_02.mot
version=1
nRows=9
nColumns=50
inDegrees=yes
endheader
                time	         pelvis_tilt	         pelvis_list	     pelvis_rotation	           pelvis_tx	           pelvis_ty	           pelvis_tz	       hip_flexion_r	     hip_adduction_r	      hip_rotation_r	        knee_angle_r	       ankle_angle_r	         mtp_angle_r	       hip_flexion_l	     hip_adduction_l	      hip_rotation_l	        knee_angle_l	       ankle_angle_l	         mtp_angle_l	    lumbar_extension	      lumbar_bending	     lumbar_rotation	 ercspn_r/activation	 intobl_r/activation	 extobl_r/activation	    abd_r/activation	    add_r/activation	hamstrings_r/activation	bifemsh_r/activation	glut_max_r/activation	iliopsoas_r/activation	rect_fem_r/activation	  vasti_r/activation	gastroc_r/activation	 soleus_r/activation	tib_ant_r/activation	 ercspn_l/activation	 intobl_l/activation	 extobl_l/activation	    abd_l/activation	    add_l/activation	hamstrings_l/activation	bifemsh_l/activation	glut_max_l/activation	iliopsoas_l/activation	rect_fem_l/activation	  vasti_l/activation	gastroc_l/activation	 soleus_l/activation	tib_ant_l/activation	
          1.00000001	        -11.51907121	          1.47029841	         -6.10605286	          1.13000001	          0.84447635	         -0.01920068	         27.13580683	          5.09496190	          1.84112751	        -59.09251431	        -22.25896156	         21.55879564	         27.93171246	          3.39621332	         11.44974534	         -5.29660111	          4.18993897	          3.11029590	         -1.80134682	         -2.73849929	         -3.86973069	          0.12951863	          0.00999999	          0.01269633	          0.06132515	          0.17483422	          0.06464811	          0.03274456	          0.00999999	          0.08160378	          0.50670341	          0.22837313	          0.17362691	          0.16364478	          0.00999999	          0.18720956	          0.05147331	          0.01751454	          0.17469065	          0.27145823	          0.21756789	          0.00999999	          0.05490706	          0.18059457	          0.16844175	          0.01979788	          0.01160569	          0.01572919	          0.30195102	
          1.02000001	        -11.62100698	          0.92926050	         -4.67419431	          1.15370946	          0.83736692	         -0.02035324	         25.36114395	          4.85093735	          0.22899253	        -59.07767922	        -23.34340832	         25.70029653	         28.04390169	          3.54713415	         10.71288278	         -7.07089417	          4.13127077	          2.39239362	         -1.62444349	         -2.94994712	         -3.26713437	          0.11970852	          0.00999999	          0.00999999	          0.04599386	          0.13112566	          0.04848608	          0.02455842	          0.00999999	          0.09106906	          0.38002756	          0.17788206	          0.17757710	          0.13794874	          0.00999999	          0.14040717	          0.03860498	          0.01313590	          0.16728022	          0.20359367	          0.18445583	          0.05520346	          0.08911285	          0.13544593	          0.12633131	          0.01484841	          0.01333332	          0.01333333	          0.30213315	
          1.04000001	        -11.69758643	          0.34688763	         -3.17310722	          1.17864764	          0.83151620	         -0.02126594	         23.88328558	          4.60660432	         -1.74098027	        -59.34083779	        -24.82922369	         27.55689790	         27.70300517	          3.75142055	         10.41868850	         -9.35975514	          4.15775470	          1.84458757	         -1.23925099	         -3.23061867	         -2.68039299	          0.15661950	          0.02593890	          0.00999999	          0.03449540	          0.18680351	          0.03636456	          0.01841881	          0.01777520	          0.20682678	          0.28502067	          0.13341155	          0.13318283	          0.10346155	          0.00999999	          0.10530538	          0.02895373	          0.00999999	          0.21276724	          0.15269525	          0.13834187	          0.12526239	          0.20591900	          0.10158445	          0.09474848	          0.01113631	          0.00999999	          0.00999999	          0.32768776	
          1.06000001	        -11.75968944	         -0.15849671	         -1.64304359	          1.20340211	          0.82862503	         -0.02188710	         22.82454655	          4.35794296	         -3.70250719	        -59.66004294	        -27.01597224	         26.62379677	         27.48213347	          4.08206428	         10.89075256	        -12.11388676	          5.46130314	          1.41496549	         -0.83977290	         -3.68499231	         -2.11271767	          0.19568925	          0.13287362	          0.00999999	          0.02587155	          0.14010263	          0.02727342	          0.01381411	          0.03354525	          0.34955727	          0.21376550	          0.10005866	          0.09988712	          0.07759616	          0.00999999	          0.12176918	          0.02171530	          0.00999999	          0.24569435	          0.18426848	          0.10564656	          0.09394679	          0.28472434	          0.07618833	          0.07106136	          0.01865231	          0.02306363	          0.00999999	          0.24576582	
          1.08000001	        -11.80268776	         -0.71703717	         -0.18648746	          1.22758710	          0.82886919	         -0.02226907	         22.16945616	          4.27627844	         -5.48303844	        -59.86700105	        -29.99711046	         23.24350988	         27.29601214	          4.35187986	         11.82069682	        -15.03102771	          7.28312824	          1.27163929	         -0.48271116	         -4.06031190	         -1.59718838	          0.18256881	          0.18482640	          0.00999999	          0.03160491	          0.10507697	          0.05063696	          0.38581452	          0.04213988	          0.47729210	          0.16032412	          0.07504399	          0.07491534	          0.05819712	          0.00999999	          0.13699606	          0.01628648	          0.00999999	          0.26068578	          0.25386252	          0.09331452	          0.07046010	          0.26375183	          0.05714125	          0.05329602	          0.01398924	          0.04616455	          0.00999999	          0.18432436	
          1.10000001	        -11.81425707	         -1.30453502	          1.12527926	          1.25124566	          0.83069405	         -0.02249143	         21.98283679	          4.36532817	         -6.89355171	        -60.30104990	        -32.88165937	         18.30346722	         26.87024406	          4.48249188	         12.88451407	        -17.45192208	          8.65283463	          1.46841222	         -0.15751211	         -4.30475375	         -1.19268647	          0.16384543	          0.22709412	          0.00999999	          0.02370368	          0.07880773	          0.06245398	          0.61246644	          0.03160491	          0.53583215	          0.12024309	          0.05628300	          0.05618650	          0.04364784	          0.05580184	          0.12494974	          0.01221486	          0.00999999	          0.24729919	          0.24250949	          0.09746989	          0.05284507	          0.23996367	          0.04285594	          0.03997202	          0.03911598	          0.07021129	          0.00999999	          0.13824327	
          1.12000001	        -11.79280813	         -1.87877332	          2.25932831	          1.27421610	          0.83301042	         -0.02261897	         22.35467285	          4.62564405	         -7.64559280	        -61.34954717	        -32.48705482	         14.00967460	         26.05812269	          4.44054320	         13.90588936	        -19.06077250	          9.57880544	          2.08125722	          0.10396602	         -4.41354699	         -0.94452428	          0.13886957	          0.23125111	          0.00999999	          0.01777776	          0.05910580	          0.04684048	          0.64571078	          0.02370368	          0.51984277	          0.09018232	          0.04221225	          0.04213988	          0.03273588	          0.07488332	          0.09612990	          0.00999999	          0.00999999	          0.21827488	          0.18188211	          0.10115812	          0.03963380	          0.19251926	          0.03214195	          0.02997901	          0.08502585	          0.09693728	          0.00999999	          0.11243208	
          1.14000001	        -11.73952362	         -2.40572904	          3.22093804	          1.29631532	          0.83564516	         -0.02268395	         23.37506574	          4.98245881	         -7.69630680	        -62.89376488	        -30.23712134	         10.78217218	         24.80802628	          4.22586992	         14.83863220	        -19.73279812	         10.12184789	          3.00951851	          0.25268264	         -4.40998152	         -0.85957330	          0.14426467	          0.18905755	          0.00999999	          0.01333332	          0.08878293	          0.03513036	          0.54528322	          0.01777776	          0.44406188	          0.06763674	          0.03165918	          0.03160491	          0.02455191	          0.07714210	          0.07209743	          0.00999999	          0.00999999	          0.18673899	          0.13641158	          0.09648331	          0.02972535	          0.14463892	          0.02410646	          0.02248426	          0.11426895	          0.12509455	          0.00999999	          0.08432406	
          1.16000001	        -11.65149724	         -2.88350921	          4.06564958	          1.31778750	          0.83863145	         -0.02269136	         24.81561783	          5.42629214	         -7.17566144	        -64.46008330	        -27.05084024	          8.30531667	         23.14519584	          3.85471684	         15.69804411	        -19.54292066	         10.28846824	          4.15801902	          0.31109988	         -4.32073249	         -0.90769592	          0.14767041	          0.14732264	          0.00999999	          0.00999999	          0.14901621	          0.02634777	          0.52189974	          0.01333332	          0.35155231	          0.08187881	          0.02374439	          0.02370368	          0.01841393	          0.07601621	          0.06153198	          0.00999999	          0.00999999	          0.15297226	          0.10230869	          0.09293014	          0.02229401	          0.10847919	          0.01807985	          0.01686319	          0.11502706	          0.15431625	          0.00999999	          0.06324305	
